# xmcd
#
# Track frame offsets:
#	150
#	22120
#	40175
#	56500
#	77338
#	98038
#	117745
#	135243
#	152928
#	172195
#
# Disc length: 2556 seconds
#
# Revision: 5898476
# Processed by: cddbd v1.5.2PL0 Copyright (c) Steve Scherf et al.
# Submitted via: EZCDAudioConverter 8.0.2.1
#
DISCID=7e09fa0a
DTITLE=Various Artist - The Best Of Bebop Chachacha
DYEAR=1992
DGENRE=Contemporary Pop
TTITLE0=Công Thành - La Femme Qui Dit, Jamais Je T'aime!
TTITLE1=Lucie Kim Chi - Những ngày mưa gió
TTITLE2=Ý Nhi - Môi đỏ
TTITLE3=Phillip Huy - Hold On
TTITLE4=Ngọc Huệ - Về trên nỗi xót xa
TTITLE5=Don Hồ - Casablanca
TTITLE6=Thái Hiền - Ngày vui còn đâu
TTITLE7=Công Thành - She's Not There
TTITLE8=Trizzie Phương Trinh - Will You Still Love Me Tomorrow
TTITLE9=Phillip Huy - Shy Girl
EXTD=
EXTT0=
EXTT1=
EXTT2=
EXTT3=
EXTT4=
EXTT5=
EXTT6=
EXTT7=
EXTT8=
EXTT9=
PLAYORDER=
